<?xml version="1.0" encoding="UTF-8"?>
<svg width="34px" height="25px" viewBox="0 0 34 25" version="1.1" xmlns="http://www.w3.org/2000/svg" xmlns:xlink="http://www.w3.org/1999/xlink">
    <title>离线作业数备份</title>
    <defs>
        <linearGradient x1="50%" y1="0%" x2="50%" y2="100%" id="linearGradient-1">
            <stop stop-color="#7995FF" offset="0%"></stop>
            <stop stop-color="#1740DC" offset="100%"></stop>
        </linearGradient>
        <linearGradient x1="50%" y1="0%" x2="50%" y2="100%" id="linearGradient-2">
            <stop stop-color="#7995FF" offset="0%"></stop>
            <stop stop-color="#1740DC" offset="100%"></stop>
        </linearGradient>
    </defs>
    <g id="数据中台-eva" stroke="none" stroke-width="1" fill="none" fill-rule="evenodd">
        <g id="画板" transform="translate(-184.000000, -110.000000)">
            <g id="离线作业数备份" transform="translate(184.000000, 110.000000)">
                <ellipse id="Oval" fill="#DEE9FE" cx="17" cy="15" rx="17" ry="10"></ellipse>
                <g id="编组-7" transform="translate(7.000000, 0.000000)" fill-rule="nonzero">
                    <g id="桌面,电脑,显示屏,显示器">
                        <g id="编组-6">
                            <path d="M15.9375,0 L1.0625,0 C0.476464844,0 0,0.463425926 0,1.03703704 L0,10.3703704 C0,10.9423611 0.476464844,11.4074074 1.0625,11.4074074 L6.2421875,11.4074074 C6.31523437,11.4074074 6.375,11.4657407 6.375,11.537037 L6.375,12.8981481 C6.375,12.9337963 6.34511719,12.962963 6.30859375,12.962963 L5.3125,12.962963 C5.01865234,12.962963 4.78125,13.1946759 4.78125,13.4814815 L4.78125,14 L12.21875,14 L12.21875,13.4814815 C12.21875,13.1946759 11.9813477,12.962963 11.6875,12.962963 L10.6914062,12.962963 C10.6548828,12.962963 10.625,12.9337963 10.625,12.8981481 L10.625,11.537037 C10.625,11.4657407 10.6847656,11.4074074 10.7578125,11.4074074 L15.9375,11.4074074 C16.5235352,11.4074074 17,10.9423611 17,10.3703704 L17,1.03703704 C17,0.463425926 16.5235352,0 15.9375,0 Z M9.5625,12.8981481 C9.5625,12.9337963 9.53261719,12.962963 9.49609375,12.962963 L7.50390625,12.962963 C7.46738281,12.962963 7.4375,12.9337963 7.4375,12.8981481 L7.4375,12.0555556 C7.4375,11.9842593 7.49726563,11.9259259 7.5703125,11.9259259 L9.4296875,11.9259259 C9.50273437,11.9259259 9.5625,11.9842593 9.5625,12.0555556 L9.5625,12.8981481 Z" id="形状" fill="url(#linearGradient-1)"></path>
                            <path d="M3.55,4 L13.45,4 C13.7537566,4 14,3.77614237 14,3.5 C14,3.22385763 13.7537566,3 13.45,3 L3.55,3 C3.24624339,3 3,3.22385763 3,3.5 C3,3.77614237 3.24624339,4 3.55,4 Z" id="直线-2" fill="#FFFFFF"></path>
                            <path d="M3.55,8 L13.45,8 C13.7537566,8 14,7.77614237 14,7.5 C14,7.22385763 13.7537566,7 13.45,7 L3.55,7 C3.24624339,7 3,7.22385763 3,7.5 C3,7.77614237 3.24624339,8 3.55,8 Z" id="直线-2备份" fill="#DEE9FE"></path>
                        </g>
                        <g id="编组-3" transform="translate(10.000000, 8.000000)">
                            <g id="编组-2" transform="translate(1.000000, 0.800000)" fill="url(#linearGradient-2)">
                                <path d="M4.8,-7.99360578e-15 C7.4509668,-7.99360578e-15 9.6,2.1490332 9.6,4.8 C9.6,7.4509668 7.4509668,9.6 4.8,9.6 C2.1490332,9.6 -4.4408921e-14,7.4509668 -4.4408921e-14,4.8 C-4.4408921e-14,2.1490332 2.1490332,-7.99360578e-15 4.8,-7.99360578e-15 Z M7.63827333,1.73204244 C7.40808379,1.4936742 6.95094841,1.56168624 6.61723287,1.88395159 L6.61723287,1.88395159 L1.78326941,6.55205584 L1.68137066,6.66389676 C1.43478196,6.9726494 1.39120609,7.35528987 1.595819,7.56717275 C1.82600854,7.80554099 2.28314392,7.73752895 2.61685946,7.4152636 L2.61685946,7.4152636 L7.45082292,2.74715935 L7.55272167,2.63531843 C7.79931037,2.3265658 7.84288625,1.94392532 7.63827333,1.73204244 Z" id="Combined-Shape"></path>
                            </g>
                            <path d="M6,0 C9.3137085,0 12,2.6862915 12,6 C12,9.3137085 9.3137085,12 6,12 C2.6862915,12 0,9.3137085 0,6 C0,2.6862915 2.6862915,0 6,0 Z M6,1 C3.23857625,1 1,3.23857625 1,6 C1,8.76142375 3.23857625,11 6,11 C8.76142375,11 11,8.76142375 11,6 C11,3.23857625 8.76142375,1 6,1 Z" id="椭圆形" fill="#DEE9FE"></path>
                        </g>
                    </g>
                </g>
            </g>
        </g>
    </g>
</svg>