<?xml version="1.0" encoding="UTF-8"?>
<svg width="34px" height="27px" viewBox="0 0 34 27" version="1.1" xmlns="http://www.w3.org/2000/svg" xmlns:xlink="http://www.w3.org/1999/xlink">
    <title>编组 15备份</title>
    <defs>
        <linearGradient x1="50%" y1="0%" x2="50%" y2="100%" id="linearGradient-1">
            <stop stop-color="#7995FF" offset="0%"></stop>
            <stop stop-color="#1740DC" offset="100%"></stop>
        </linearGradient>
        <linearGradient x1="50%" y1="0%" x2="50%" y2="100%" id="linearGradient-2">
            <stop stop-color="#7995FF" offset="0%"></stop>
            <stop stop-color="#1740DC" offset="100%"></stop>
        </linearGradient>
    </defs>
    <g id="数据中台-eva" stroke="none" stroke-width="1" fill="none" fill-rule="evenodd">
        <g id="画板" transform="translate(-238.000000, -109.000000)">
            <g id="编组-15备份" transform="translate(238.000000, 109.000000)">
                <g id="编组-2备份-5">
                    <ellipse id="Oval" fill="#DEE9FE" cx="17" cy="17" rx="17" ry="10"></ellipse>
                    <g id="ic_strong" transform="translate(6.800000, 0.418182)" fill="#D8D8D8" opacity="0">
                        <g id="Group-10">
                            <rect id="Rectangle" x="0" y="0" width="19.7818182" height="19.7818182"></rect>
                        </g>
                    </g>
                </g>
                <g id="实时任务" transform="translate(6.000000, 3.000000)" fill-rule="nonzero">
                    <g id="编组-4">
                        <g id="任务管理">
                            <rect id="矩形" fill="#000000" opacity="0" x="0" y="0" width="17" height="17"></rect>
                            <path d="M1.77093092,2.19200596 C1.99531563,1.92103032 2.21963695,1.66779942 2.44389488,1.43231327 C2.61652808,1.22344519 2.80063617,1.02454441 2.99534881,0.836551222 C3.18905493,0.651544687 3.33560223,0.515800625 3.43499071,0.429319038 C3.57239667,0.316965968 3.71939329,0.217152999 3.87425229,0.131053654 C4.06960922,0.0360858035 4.28520502,-0.00848290296 4.50176883,0.00133127373 L12.5843721,0.00133127373 C12.7752951,0.00664291638 12.9643383,0.0409798994 13.1451437,0.103187365 C13.3824838,0.187664978 13.5950903,0.330911852 13.7635327,0.519836433 C13.8634283,0.643344951 13.9943194,0.797602478 14.1562059,0.982609013 C14.3180925,1.16761555 14.4739575,1.34698477 14.6238008,1.52071667 C14.7986181,1.73019429 14.9731818,1.95235587 15.1474919,2.18720143 L1.77093092,2.18720143 L1.77093092,2.19200596 Z M15.8284425,10.3650925 L1.13732937,10.3650925 C0.835204711,10.3655508 0.545637294,10.4873003 0.332341717,10.7035518 C0.11904614,10.9198033 -0.00050154929,11.2128387 1.58170233e-06,11.5181803 L1.58170233e-06,14.7135788 C-0.000942776876,15.3493818 0.508225264,15.8656061 1.13732937,15.8666667 L15.8284425,15.8666667 C16.1305671,15.8662083 16.4201345,15.7444589 16.6334301,15.5282073 C16.8467257,15.3119558 16.9662734,15.0189204 16.9657702,14.7135788 L16.9657702,11.5181803 C16.9662734,11.2128387 16.8467257,10.9198033 16.6334301,10.7035518 C16.4201345,10.4873003 16.1305671,10.3655508 15.8284425,10.3650925 L15.8284425,10.3650925 Z M9.86399278,13.1146304 C9.8669834,13.2353092 9.82348593,13.3524457 9.74267291,13.4413386 C9.65835085,13.5324637 9.53873157,13.5816357 9.41541353,13.5758655 L7.5258281,13.5758655 C7.40006621,13.5802586 7.27817666,13.5315129 7.18944121,13.4413386 C7.01437679,13.2594639 7.01437679,12.9697969 7.18944121,12.7879222 C7.27807247,12.6975881 7.40003404,12.6488136 7.5258281,12.6533953 L9.41541353,12.6533953 C9.53872712,12.6476513 9.65833594,12.696819 9.74267291,12.7879222 C9.82358995,12.8767504 9.86710382,12.9939311 9.86399278,13.1146304 L9.86399278,13.1146304 Z M15.8626706,3.63509537 L1.17155755,3.63509537 C0.869432886,3.63555373 0.579865469,3.75730316 0.366569892,3.97355469 C0.153274315,4.18980622 0.0337266259,4.48284162 0.0342297568,4.7881832 L0.0342297568,7.98358175 C0.0337266259,8.28892333 0.153274315,8.58195872 0.366569892,8.79821026 C0.579865469,9.01446179 0.869432886,9.13621122 1.17155755,9.13666957 L15.8626706,9.13666957 C16.1647953,9.13621122 16.4543627,9.01446179 16.6676583,8.79821026 C16.8809539,8.58195872 17.0005015,8.28892333 16.9999984,7.98358175 L16.9999984,4.7881832 C17.0009428,4.15238026 16.4917747,3.63615592 15.8626706,3.63509537 Z M9.89822095,6.38482548 C9.90115162,6.50549408 9.8576623,6.6226086 9.77690109,6.71153369 C9.69255015,6.80273313 9.57283929,6.85191424 9.44945155,6.84606061 L7.56005628,6.84606061 C7.43422508,6.85053129 7.31224724,6.80177781 7.22347922,6.71153369 C7.04871473,6.529536 7.04871473,6.24011496 7.22347922,6.05811726 C7.31223424,5.9678532 7.43422107,5.91909613 7.56005628,5.92359035 L9.44945155,5.92359035 C9.57282593,5.91781546 9.69250535,5.96698366 9.77690109,6.05811726 C9.85769682,6.14702092 9.90119157,6.26415006 9.89822095,6.38482548 L9.89822095,6.38482548 Z" id="形状" fill="url(#linearGradient-1)"></path>
                        </g>
                        <rect id="矩形" stroke="#DEE9FE" fill="url(#linearGradient-2)" x="12" y="9" width="10" height="10" rx="2"></rect>
                    </g>
                    <g id="勾" transform="translate(14.000000, 12.000000)" fill="#DEE9FE">
                        <path d="M2.33442592,5 C2.23957839,5 2.1480524,4.96148263 2.07914294,4.89192442 L0.113800335,2.90813459 C-0.033415714,2.75953617 -0.0384647906,2.51327655 0.102533801,2.35814275 C0.243524047,2.20298256 0.477175279,2.19766102 0.624399675,2.34625945 L2.30232047,4.03993315 L5.34588711,0.141832535 C5.47540218,-0.0240586848 5.70800187,-0.0478692645 5.86542457,0.0886259606 C6.02283057,0.225129982 6.04542206,0.470281317 5.91589864,0.636181332 L2.6194609,4.85816565 C2.55419011,4.94176215 2.45882515,4.99291048 2.35629134,4.99931392 C2.3489973,4.99977131 2.34170327,5 2.33441757,5 L2.33442592,5 Z" id="路径"></path>
                    </g>
                </g>
            </g>
        </g>
    </g>
</svg>