<?xml version="1.0" encoding="UTF-8"?>
<svg width="34px" height="27px" viewBox="0 0 34 27" version="1.1" xmlns="http://www.w3.org/2000/svg" xmlns:xlink="http://www.w3.org/1999/xlink">
    <title>编组 14备份</title>
    <defs>
        <linearGradient x1="50%" y1="0%" x2="50%" y2="100%" id="linearGradient-1">
            <stop stop-color="#7995FF" offset="0%"></stop>
            <stop stop-color="#1740DC" offset="100%"></stop>
        </linearGradient>
        <linearGradient x1="50%" y1="0%" x2="50%" y2="100%" id="linearGradient-2">
            <stop stop-color="#7995FF" offset="0%"></stop>
            <stop stop-color="#1740DC" offset="100%"></stop>
        </linearGradient>
    </defs>
    <g id="数据中台-eva" stroke="none" stroke-width="1" fill="none" fill-rule="evenodd">
        <g id="画板" transform="translate(-130.000000, -109.000000)">
            <g id="编组-14备份" transform="translate(130.000000, 109.000000)">
                <g id="运行作业数" transform="translate(0.000000, 1.581818)">
                    <ellipse id="Oval" fill="#DEE9FE" cx="17" cy="15" rx="17" ry="10"></ellipse>
                    <g id="Group-45" transform="translate(9.000000, 0.000000)" fill-rule="nonzero">
                        <path d="M11.472,0 L11.4720452,2.03856615 L11.4798927,2.2010806 C11.5580747,3.00646158 12.2113445,3.64665542 13.0308295,3.71918556 L13.1863309,3.72603439 L16,3.726 L16,10.5706714 L8.07033896,18 L2,18 C0.8954305,18 1.11632554e-15,17.1045695 0,16 L0,2.00033877 C-1.3527075e-16,0.89576927 0.8954305,0.000338769688 2,0.000338769688 L11.472,0 Z M12.5714286,10.1251482 L3.42857143,10.1251482 L3.29529014,10.1327168 C2.72690307,10.1977013 2.28571429,10.6731976 2.28571429,11.250127 C2.28571429,11.8714357 2.79738886,12.3751059 3.42857143,12.3751059 L3.42857143,12.3751059 L12.5714286,12.3751059 L12.7047099,12.3675373 C13.2730969,12.3025528 13.7142857,11.8270565 13.7142857,11.250127 C13.7142857,10.6288184 13.2026111,10.1251482 12.5714286,10.1251482 L12.5714286,10.1251482 Z M12.5714286,5.6252329 L3.42857143,5.6252329 L3.29529014,5.63280146 C2.72690307,5.69778598 2.28571429,6.17328227 2.28571429,6.75021173 C2.28571429,7.37152038 2.79738886,7.87519056 3.42857143,7.87519056 L3.42857143,7.87519056 L12.5714286,7.87519056 L12.7047099,7.867622 C13.2730969,7.80263748 13.7142857,7.32714119 13.7142857,6.75021173 C13.7142857,6.12890308 13.2026111,5.6252329 12.5714286,5.6252329 L12.5714286,5.6252329 Z M14,0.000338769688 C15.1045695,0.000338769688 16,0.89576927 16,2.00033877 L16,2.601 L13.1863309,2.60105556 L13.0836159,2.5919931 C12.8466644,2.54965794 12.6606184,2.36349213 12.6222002,2.12870464 L12.6149024,2.03856615 L12.614,0 L14,0.000338769688 Z" id="Combined-Shape" fill="url(#linearGradient-1)"></path>
                        <path d="M15.3971662,13.5873163 L17.2871662,15.2703163 L12.1979531,19.8063308 C12.1116393,19.8832488 12.0013373,19.9278784 11.8858214,19.9326231 L10.2500158,19.9998134 C10.1175792,20.0052532 10.0058082,19.9023019 10.0003684,19.7698652 C9.99985391,19.757339 10.0003217,19.7447917 10.0017674,19.7323386 L10.1529165,18.4303978 C10.1670517,18.3086421 10.2254188,18.1963203 10.3169288,18.1147717 L15.3971662,13.5873163 Z M17.8082651,12.1503726 L18.796028,13.0306112 C19.0434205,13.2510734 19.0652518,13.6303446 18.8447896,13.8777371 C18.829484,13.8949123 18.8132033,13.9111931 18.796028,13.9264986 L17.9841662,14.6493163 L16.0951662,12.9643163 L17.0099008,12.1503726 C17.2374081,11.9476309 17.5807578,11.9476309 17.8082651,12.1503726 Z" id="Combined-Shape" fill="url(#linearGradient-2)"></path>
                    </g>
                </g>
                <g id="ic_strong" transform="translate(6.800000, 0.000000)" fill="#D8D8D8" opacity="0">
                    <g id="Group-10">
                        <rect id="Rectangle" x="0" y="0" width="19.7818182" height="19.7818182"></rect>
                    </g>
                </g>
            </g>
        </g>
    </g>
</svg>