<?xml version="1.0" encoding="UTF-8"?>
<svg width="34px" height="27px" viewBox="0 0 34 27" version="1.1" xmlns="http://www.w3.org/2000/svg" xmlns:xlink="http://www.w3.org/1999/xlink">
    <title>总项目数备份</title>
    <defs>
        <linearGradient x1="50%" y1="0%" x2="50%" y2="100%" id="linearGradient-1">
            <stop stop-color="#7995FF" offset="0%"></stop>
            <stop stop-color="#1740DC" offset="100%"></stop>
        </linearGradient>
        <linearGradient x1="50%" y1="0%" x2="50%" y2="100%" id="linearGradient-2">
            <stop stop-color="#7995FF" offset="0%"></stop>
            <stop stop-color="#1740DC" offset="100%"></stop>
        </linearGradient>
    </defs>
    <g id="数据中台-eva" stroke="none" stroke-width="1" fill="none" fill-rule="evenodd">
        <g id="画板" transform="translate(-76.000000, -109.000000)">
            <g id="总项目数备份" transform="translate(76.000000, 109.000000)">
                <g id="编组-2备份-4">
                    <ellipse id="Oval" fill="#5B8FF9" opacity="0.200000003" cx="17" cy="17" rx="17" ry="10"></ellipse>
                    <g id="ic_strong" transform="translate(6.800000, 0.418182)" fill="#D8D8D8" opacity="0">
                        <g id="Group-10">
                            <rect id="Rectangle" x="0" y="0" width="19.7818182" height="19.7818182"></rect>
                        </g>
                    </g>
                </g>
                <path d="M25.1746602,1 C26.1631116,1 26.9718446,1.80873301 26.9718446,2.79718447 L26.9718446,10.4684663 C25.9860152,9.57899324 24.705264,9.08686457 23.3774757,9.08733007 C20.999015,9.08705508 18.9014575,10.6456129 18.2153531,12.9229659 C17.5292488,15.2003188 18.4167635,17.6581975 20.399541,18.9718446 L10.7971845,18.9718446 C9.80873301,18.9718446 9,18.1631116 9,17.1746602 L9,2.79718447 C9,1.80873301 9.80873301,1 10.7971845,1 L25.1746602,1 Z M16.1887378,11.7831068 L12.5943689,11.7831068 C12.1001432,11.7831068 11.6957767,12.1874733 11.6957767,12.681699 C11.6957767,13.1759247 12.1001432,13.5802912 12.5943689,13.5802912 L16.1887378,13.5802912 C16.6829636,13.5802912 17.0873301,13.1759247 17.0873301,12.681699 C17.0873301,12.1874733 16.6829636,11.7831068 16.1887378,11.7831068 L16.1887378,11.7831068 Z M17.9859223,8.18873785 L12.5943689,8.18873785 C12.1001432,8.18873785 11.6957767,8.59310435 11.6957767,9.08733007 C11.6957767,9.58155579 12.1001432,9.98592231 12.5943689,9.98592231 L17.9859223,9.98592231 C18.480148,9.98592231 18.8845145,9.58155581 18.8845145,9.08733007 C18.8845145,8.59310434 18.480148,8.18873785 17.9859223,8.18873785 Z M23.3774757,4.59436893 L12.5943689,4.59436893 C12.1001432,4.59436893 11.6957767,4.99873544 11.6957767,5.49296116 C11.6957767,5.98718688 12.1001432,6.39155338 12.5943689,6.39155338 L23.3774757,6.39155338 C23.8717014,6.39155338 24.2760679,5.98718688 24.2760679,5.49296116 C24.2760679,4.99873544 23.8717014,4.59436893 23.3774757,4.59436893 L23.3774757,4.59436893 Z" id="形状" fill="url(#linearGradient-1)" fill-rule="nonzero"></path>
                <path d="M23.3774757,10.8845145 C25.3625908,10.8845145 26.9718446,12.4937683 26.9718446,14.4788835 C26.9718446,15.3756785 26.6312782,16.1862087 26.0876299,16.8170204 L26.7085571,17.4379477 C26.942152,17.6635613 27.0358355,17.9976609 26.9536005,18.3118351 C26.8713654,18.6260094 26.6260094,18.8713654 26.3118351,18.9536005 C25.9976609,19.0358355 25.6635613,18.942152 25.4379477,18.7085571 L24.5815893,17.8521987 C24.2023834,17.9869875 23.8025098,18.0732524 23.3774757,18.0732524 C21.3924587,18.0731136 19.783358,16.4639005 19.783358,14.4788835 C19.783358,12.4938664 21.3924587,10.8846533 23.3774757,10.8845145 L23.3774757,10.8845145 Z" id="路径" fill="url(#linearGradient-2)" fill-rule="nonzero"></path>
            </g>
        </g>
    </g>
</svg>